<svg xmlns="http://www.w3.org/2000/svg" viewBox="0 0 512 512">
  <rect width="512" height="512" rx="112" fill="#141d2c"/>
  <circle cx="256" cy="256" r="166" fill="#2379e8"/>
  <path fill="#fff" d="M170 169c0-22 18-40 40-40h142c22 0 40 18 40 40v174c0 22-18 40-40 40H210c-22 0-40-18-40-40V169Z"/>
  <path fill="#2379e8" d="M214 185h112v26H214v-26Zm0 64h84v26h-84v-26Zm0 64h128v26H214v-26Z"/>
  <circle cx="351" cy="199" r="43" fill="#10a76d"/>
  <path fill="#fff" d="M343 224v-10c-12-3-23-10-23-24 0-13 9-22 23-25v-9h16v9c9 2 17 6 23 13l-12 13c-5-5-11-8-18-8-8 0-13 3-13 8 0 6 6 8 17 11 14 4 26 10 26 25 0 13-9 22-23 25v10h-16Z"/>
</svg>
